<?xml version="1.0" encoding="UTF-8"?>
<svg version="1.1" xmlns="http://www.w3.org/2000/svg" width="803" height="803">
<path d="M0 0 C0 0.66 0 1.32 0 2 C0.825 2.0825 1.65 2.165 2.5 2.25 C5.48019397 2.88861299 7.25499776 3.54465296 9.875 4.9375 C13.84251555 7.04380652 17.61519978 8.06039995 22 9 C22 9.66 22 10.32 22 11 C22.97839844 11.07347656 22.97839844 11.07347656 23.9765625 11.1484375 C24.85054688 11.22320312 25.72453125 11.29796875 26.625 11.375 C27.48351562 11.44460938 28.34203125 11.51421875 29.2265625 11.5859375 C32.32464043 12.04846744 35.04123517 12.97856654 38 14 C43.69197647 15.45966022 49.41784955 16.86428472 55.25 17.625 C58 18 58 18 59 19 C61.9798847 19.37578842 64.94935961 19.70691037 67.9375 20 C69.59280233 20.16310908 71.24777422 20.32961794 72.90234375 20.5 C73.63960693 20.5721875 74.37687012 20.644375 75.13647461 20.71875 C77 21 77 21 79 22 C81.19006765 22.21228085 83.38557581 22.36945114 85.58203125 22.5 C86.23322433 22.54060547 86.88441742 22.58121094 87.55534363 22.62304688 C89.6408347 22.75280813 91.7266031 22.87694674 93.8125 23 C95.88766065 23.12335798 97.96269761 23.24804648 100.03752136 23.37695312 C101.92820522 23.49433031 103.81919992 23.6066682 105.71020508 23.71875 C109 24 109 24 111.33696502 24.50971305 C114.24845194 25.04574207 116.93808114 25.12537259 119.89835453 25.12584114 C121.08671408 25.12844889 122.27507362 25.13105664 123.49944407 25.13374341 C124.80118285 25.13151268 126.10292164 25.12928196 127.44410706 25.12698364 C128.8438793 25.12813592 130.24365124 25.12972416 131.64342254 25.13171089 C135.48954507 25.13588954 139.33564282 25.13382011 143.18176544 25.13072467 C147.32971546 25.12846488 151.47766118 25.13195307 155.62561035 25.13470459 C163.75103283 25.13915492 171.87644607 25.13818911 180.00186891 25.13529195 C186.60402419 25.13303519 193.20617689 25.13272658 199.80833244 25.13381577 C200.74734756 25.133969 201.68636268 25.13412223 202.6538328 25.13428011 C204.56130521 25.13459983 206.46877762 25.13492404 208.37625002 25.1352527 C226.26894392 25.13810529 244.16163269 25.13482384 262.05432575 25.12945233 C277.4150446 25.12498377 292.7757559 25.12576109 308.13647461 25.13037109 C325.9659263 25.13571948 343.79537351 25.13783139 361.62482589 25.13475883 C363.52504504 25.13444027 365.42526418 25.1341259 367.32548332 25.13381577 C368.26047892 25.13366149 369.19547451 25.13350721 370.1588033 25.13334826 C376.75536604 25.13248396 383.35192594 25.13394412 389.94848824 25.13629532 C397.98403569 25.13909641 406.01957337 25.13834846 414.0551197 25.13301457 C418.15682017 25.13038188 422.25850434 25.12936525 426.3602047 25.13266373 C430.11226678 25.13563546 433.86429739 25.13401913 437.6163566 25.12868617 C439.62233754 25.12703352 441.62832065 25.13031175 443.63429934 25.13374341 C444.82005114 25.13113566 446.00580294 25.12852791 447.22748661 25.12584114 C448.2530589 25.12567879 449.27863119 25.12551644 450.33528143 25.12534916 C452.73332443 25.0125445 454.70232287 24.64534128 457 24 C458.99953061 23.79980365 461.00296746 23.63710435 463.0078125 23.5 C464.73451172 23.37625 464.73451172 23.37625 466.49609375 23.25 C468.92314024 23.08279766 471.35022393 22.91613441 473.77734375 22.75 C474.92589844 22.6675 476.07445312 22.585 477.2578125 22.5 C478.3111377 22.4278125 479.36446289 22.355625 480.44970703 22.28125 C482.98795212 22.15038824 482.98795212 22.15038824 485 21 C488.43716155 20.53046246 491.87463023 20.13141515 495.32226562 19.75 C498.96754441 19.63001228 498.96754441 19.63001228 502 18 C504.03539568 17.64896799 506.07889489 17.34448032 508.125 17.0625 C511.83271195 16.52297518 515.42182162 15.99616256 519 14.875 C521.84710658 14.04459392 524.05748153 13.82166555 527 14 C527 13.34 527 12.68 527 12 C530.3 11.67 533.6 11.34 537 11 C537 10.34 537 9.68 537 9 C539.10251861 8.32815382 541.20707763 7.66269032 543.3125 7 C545.07013672 6.443125 545.07013672 6.443125 546.86328125 5.875 C550 5 550 5 553 5 C553 4.34 553 3.68 553 3 C555.31 2.67 557.62 2.34 560 2 C560 1.34 560 0.68 560 0 C562.31 -0.33 564.62 -0.66 567 -1 C568.40530659 1.32673473 569.80464264 3.65666061 571.1953125 5.9921875 C572.44260391 8.07100652 573.70957312 10.13809964 574.9921875 12.1953125 C575.95511719 13.76925781 575.95511719 13.76925781 576.9375 15.375 C577.54464844 16.35210937 578.15179687 17.32921875 578.77734375 18.3359375 C580 21 580 21 580.11328125 23.11328125 C578.30426669 26.17908487 575.35772547 27.33279003 572.25 28.8125 C571.54480225 29.15579346 570.83960449 29.49908691 570.11303711 29.8527832 C561.83736827 33.74316197 553.20561873 36.53827111 544.48095703 39.23144531 C542.2808972 39.91298323 540.09121066 40.61950223 537.90234375 41.3359375 C519.65307309 47.16328218 500.38821204 51.03632986 481.30859375 52.67578125 C477.85362185 52.93263561 477.85362185 52.93263561 474 54 C468.06 54.33 462.12 54.66 456 55 C456 72.16 456 89.32 456 107 C467.63293498 106.67304891 467.63293498 106.67304891 479.265625 106.33789062 C484.01034845 106.19936345 488.75508609 106.06179591 493.5 105.92993164 C497.3256113 105.8235552 501.1510765 105.71288474 504.97647858 105.59924126 C506.43565746 105.5566469 507.89488229 105.51559763 509.35414886 105.4761219 C511.39867742 105.42054922 513.44297334 105.35947574 515.48730469 105.29711914 C516.65090515 105.26380997 517.81450562 105.23050079 519.0133667 105.19618225 C521.52174994 105.03141469 523.59627223 104.6635416 526 104 C528.50491659 103.79495034 530.99519827 103.62855524 533.50390625 103.5 C534.22360092 103.45939453 534.94329559 103.41878906 535.68479919 103.37695312 C538.75431937 103.20381725 541.82429765 103.03957278 544.89428711 102.875 C547.13935975 102.75334933 549.38412066 102.62682031 551.62890625 102.5 C552.32270889 102.46455078 553.01651154 102.42910156 553.7313385 102.39257812 C556.70651467 102.22378299 559.1551933 101.9482689 562 101 C563.74745469 100.79692648 565.49990974 100.6353994 567.25390625 100.5 C568.27291016 100.4175 569.29191406 100.335 570.34179688 100.25 C572.49281517 100.08303193 574.64385696 99.91636635 576.79492188 99.75 C577.81263672 99.6675 578.83035156 99.585 579.87890625 99.5 C581.27991577 99.39171875 581.27991577 99.39171875 582.70922852 99.28125 C585.02584835 99.12661147 585.02584835 99.12661147 587 98 C590.38850649 97.55785935 593.77701805 97.18875038 597.17578125 96.83789062 C602.86539906 96.2163782 608.40039132 95.17110038 614 94 C615.70134869 93.66425461 617.40317495 93.33092019 619.10546875 93 C620.36327148 92.7525 620.36327148 92.7525 621.64648438 92.5 C623.35177816 92.16444642 625.05751589 91.83114172 626.76367188 91.5 C635.32026912 89.82285716 635.32026912 89.82285716 643.5 86.875 C646.72846278 85.74503803 649.60142976 85.94441591 653 86 C654.37130616 89.9108777 655.71902743 93.82948238 657.0625 97.75 C657.45244141 98.86117187 657.84238281 99.97234375 658.24414062 101.1171875 C658.79038086 102.72207031 658.79038086 102.72207031 659.34765625 104.359375 C659.68804932 105.34389648 660.02844238 106.32841797 660.37915039 107.34277344 C661.01289736 110.05520049 660.94500645 111.4193025 660 114 C658.68 114 657.36 114 656 114 C656 114.66 656 115.32 656 116 C652.7 116.33 649.4 116.66 646 117 C646 117.66 646 118.32 646 119 C639.565 119.495 639.565 119.495 633 120 C633 120.66 633 121.32 633 122 C627.91913204 122.84681133 623.15171623 123.09038099 618 123 C618 123.66 618 124.32 618 125 C609.585 125.495 609.585 125.495 601 126 C601 126.66 601 127.32 601 128 C593.63959083 128.79725902 586.40239645 129.12886183 579 129 C579 129.66 579 130.32 579 131 C569.62895894 131.88495497 560.40228594 132.1170409 551 132 C551 132.66 551 133.32 551 134 C547.7 134 544.4 134 541 134 C541.00092179 135.31843368 541.00184359 136.63686735 541.00279331 137.99525356 C541.02442931 169.25936641 541.04092955 200.52347729 541.05106533 231.78759586 C541.05231611 235.63175338 541.05361042 239.47591087 541.05493164 243.32006836 C541.05519395 244.08540343 541.05545626 244.8507385 541.05572652 245.63926554 C541.06008338 258.0478567 541.06797101 270.45644324 541.0771528 282.86503165 C541.08648891 295.58784581 541.09205552 308.31065754 541.09408849 321.03347498 C541.09546381 328.89049447 541.09981487 336.74750092 541.10791647 344.60451639 C541.11380407 350.61905456 541.11445907 356.6335814 541.11310768 362.64812279 C541.11338421 365.12297903 541.11539198 367.59783574 541.11920547 370.07268906 C541.12413572 373.4354765 541.12300077 376.79820689 541.12025452 380.16099548 C541.12316736 381.15416541 541.1260802 382.14733533 541.12908131 383.17060131 C541.12709026 384.06434162 541.12509921 384.95808194 541.12304783 385.8789053 C541.12361741 387.04483657 541.12361741 387.04483657 541.1241985 388.23432201 C541 390 541 390 540 391 C538.53483696 391.09781225 537.06498178 391.12631748 535.59655762 391.12698364 C534.6458287 391.12980347 533.69509979 391.13262329 532.71556091 391.13552856 C531.13836021 391.13249222 531.13836021 391.13249222 529.52929688 391.12939453 C528.42860367 391.13114685 527.32791046 391.13289917 526.19386292 391.13470459 C522.53547616 391.13912568 518.87713729 391.13618421 515.21875 391.1328125 C512.68908682 391.13348547 510.1594237 391.13445543 507.62976074 391.13571167 C502.32006151 391.13718899 497.01037963 391.13512758 491.70068359 391.13037109 C485.55394042 391.12492851 479.40723041 391.12669118 473.26048803 391.1321975 C467.35782436 391.1372744 461.45517104 391.13674706 455.55250549 391.13381577 C453.03577164 391.13314624 450.51903695 391.1339758 448.00230408 391.13629532 C444.49174725 391.13882033 440.9812551 391.13498338 437.47070312 391.12939453 C436.41923599 391.13141876 435.36776886 391.13344299 434.28443909 391.13552856 C432.85834572 391.13129883 432.85834572 391.13129883 431.40344238 391.12698364 C430.57236214 391.12660662 429.74128189 391.12622959 428.8850174 391.12584114 C427 391 427 391 426 390 C425.90361923 388.64472265 425.87628055 387.28445733 425.87695217 385.92575741 C425.8749613 385.04218878 425.87297043 384.15862015 425.87091923 383.24827671 C425.87383189 382.26705813 425.87674456 381.28583956 425.87974548 380.27488708 C425.87888947 379.24340042 425.87803345 378.21191376 425.87715149 377.14916992 C425.87548547 373.65338457 425.8810374 370.15764626 425.88647461 366.66186523 C425.88678068 364.12862938 425.8866479 361.59539344 425.88610935 359.06215763 C425.88590577 352.94418385 425.89020605 346.82622768 425.89661068 340.70825771 C425.90379393 333.63562354 425.90460451 326.56299453 425.90539551 319.49035645 C425.91065176 300.80606864 425.92461279 282.1217841 425.9375 263.4375 C425.958125 221.713125 425.97875 179.98875 426 137 C328.32 137 230.64 137 130 137 C130.03961964 219.84350909 130.03961964 219.84350909 130.09008789 302.68701172 C130.09460449 318.67407227 130.09460449 318.67407227 130.09544373 326.14749146 C130.09637906 331.39074147 130.10005903 336.63398123 130.10557556 341.87722778 C130.11258917 348.55321496 130.11449687 355.22918483 130.11307228 361.9051764 C130.11337043 364.36282059 130.11537141 366.82046525 130.11921513 369.27810645 C130.12414616 372.58295541 130.12300575 375.8877463 130.12025452 379.19259644 C130.12316718 380.1670125 130.12607985 381.14142857 130.12908077 382.14537239 C130.1270899 383.0274474 130.12509903 383.9095224 130.12304783 384.81832695 C130.12342755 385.5830837 130.12380727 386.34784044 130.1241985 387.13577163 C130 389 130 389 129 391 C92.7 391 56.4 391 19 391 C19 306.19 19 221.38 19 134 C16.36 134 13.72 134 11 134 C11 133.34 11 132.68 11 132 C10.01902344 132.01160156 9.03804688 132.02320313 8.02734375 132.03515625 C-1.36678868 132.1101593 -10.63460228 131.75353775 -20 131 C-20 130.34 -20 129.68 -20 129 C-20.66644531 129.01160156 -21.33289063 129.02320313 -22.01953125 129.03515625 C-28.74230945 129.10097366 -35.317439 128.72383639 -42 128 C-42 127.34 -42 126.68 -42 126 C-43.299375 126.020625 -44.59875 126.04125 -45.9375 126.0625 C-50.69382325 126.07004972 -55.28388953 125.59887117 -60 125 C-60 124.67 -60 124.34 -60 124 C-66.93 123.01 -66.93 123.01 -74 122 C-74 121.34 -74 120.68 -74 120 C-77.96 119.67 -81.92 119.34 -86 119 C-86 118.34 -86 117.68 -86 117 C-89.3 116.67 -92.6 116.34 -96 116 C-96 115.34 -96 114.68 -96 114 C-97.65 114 -99.3 114 -101 114 C-100.67 111.36 -100.34 108.72 -100 106 C-99.34 106 -98.68 106 -98 106 C-97.67 103.36 -97.34 100.72 -97 98 C-96.34 98 -95.68 98 -95 98 C-94.87625 96.948125 -94.7525 95.89625 -94.625 94.8125 C-94.08859218 91.54041229 -93.36119965 88.99463924 -92 86 C-87.68952831 85.79951294 -84.94434835 86.36239109 -81 88 C-75.98856132 89.56560641 -70.97931038 90.9916591 -65.75 91.5625 C-62 92 -62 92 -58.81640625 92.9296875 C-54.62583191 94.10493558 -50.47879237 94.87185307 -46.1875 95.5625 C-45.39794922 95.69253418 -44.60839844 95.82256836 -43.79492188 95.95654297 C-38.79223955 96.76326146 -33.80658999 97.42035281 -28.75 97.7890625 C-27 98 -27 98 -25 99 C-23.22459313 99.20957769 -21.44301923 99.36812142 -19.66015625 99.5 C-18.59732422 99.5825 -17.53449219 99.665 -16.43945312 99.75 C-15.32505859 99.8325 -14.21066406 99.915 -13.0625 100 C-10.86562541 100.16320368 -8.66899374 100.32972066 -6.47265625 100.5 C-5.00711304 100.60828125 -5.00711304 100.60828125 -3.51196289 100.71875 C-1 101 -1 101 2 102 C4.72922494 102.21077074 7.44253915 102.37498279 10.17578125 102.5 C11.37994942 102.5609082 11.37994942 102.5609082 12.60844421 102.62304688 C15.17628293 102.75268769 17.74434026 102.87689376 20.3125 103 C22.86993188 103.12335423 25.42726444 103.24800655 27.98442078 103.37695312 C29.57476132 103.45710779 31.16526589 103.5340908 32.75593567 103.60742188 C35.87855942 103.76443649 38.86897371 103.97721282 41.95361328 104.51367188 C46.07788032 105.17207386 50.14590237 105.21440252 54.31640625 105.28125 C55.2093187 105.29965942 56.10223114 105.31806885 57.02220154 105.33703613 C59.86890394 105.3954889 62.71566661 105.4483491 65.5625 105.5 C68.38433186 105.55187458 71.20609957 105.60516964 74.02781677 105.66296387 C75.77763675 105.69877182 77.52752725 105.73136107 79.27748108 105.7598877 C86.24013638 105.90174639 93.01899082 106.46299929 100 107 C100 89.51 100 72.02 100 54 C96.37 54 92.74 54 89 54 C86.90857721 53.77350951 84.82124082 53.49284331 82.75 53.125 C78.06951935 52.33478898 73.39769265 51.65189319 68.6875 51.0625 C56.31787364 49.43190044 44.11128932 46.99454956 32 44 C31.25782227 43.81679199 30.51564453 43.63358398 29.75097656 43.44482422 C12.70950116 39.20328384 12.70950116 39.20328384 5.3984375 36.03515625 C1.35113879 34.28835795 -2.79593373 32.79586233 -6.921875 31.24609375 C-10.04076576 29.98349711 -13.01149532 28.54346425 -16 27 C-16 26.34 -16 25.68 -16 25 C-17.32 24.67 -18.64 24.34 -20 24 C-19.69306887 18.01484303 -16.77089394 13.50106704 -13 9 C-12.34 9 -11.68 9 -11 9 C-9.8565644 6.79480277 -8.86774078 4.64455335 -8 2.3125 C-6.17349767 -1.91128664 -3.95892836 -0.93764093 0 0 Z M130 56 C130 72.83 130 89.66 130 107 C227.68 107 325.36 107 426 107 C426 90.17 426 73.34 426 56 C328.32 56 230.64 56 130 56 Z M48 135 C48 209.58 48 284.16 48 361 C65.16 361 82.32 361 100 361 C100 287.08 100 213.16 100 137 C89.77 137 79.54 137 69 137 C69 136.34 69 135.68 69 135 C62.07 135 55.14 135 48 135 Z M501 135 C501 135.66 501 136.32 501 137 C486.15 137 471.3 137 456 137 C456 210.92 456 284.84 456 361 C474.48 361 492.96 361 512 361 C512 286.42 512 211.84 512 135 C508.37 135 504.74 135 501 135 Z " fill="#257CD8" transform="translate(122,333)"/>
<path d="M0 0 C1.98536241 1.09537236 3.25013769 2.36970889 4.8125 4 C5.8025 4.33 6.7925 4.66 7.8125 5 C7.8125 5.66 7.8125 6.32 7.8125 7 C10.2875 7.495 10.2875 7.495 12.8125 8 C12.8125 8.66 12.8125 9.32 12.8125 10 C14.111875 10.433125 14.111875 10.433125 15.4375 10.875 C18.5625 11.91666667 21.6875 12.95833333 24.8125 14 C24.8125 14.66 24.8125 15.32 24.8125 16 C25.864375 16.12375 26.91625 16.2475 28 16.375 C31.31136041 16.91784597 33.75718384 17.71355109 36.8125 19 C38.47169896 19.36871088 40.1372643 19.71281674 41.8125 20 C41.8125 20.66 41.8125 21.32 41.8125 22 C45.7725 22.33 49.7325 22.66 53.8125 23 C53.8125 23.66 53.8125 24.32 53.8125 25 C60.0825 25.33 66.3525 25.66 72.8125 26 C72.8125 26.66 72.8125 27.32 72.8125 28 C156.9625 28 241.1125 28 327.8125 28 C327.8125 27.34 327.8125 26.68 327.8125 26 C336.2275 25.505 336.2275 25.505 344.8125 25 C344.8125 24.34 344.8125 23.68 344.8125 23 C345.41835938 22.90203125 346.02421875 22.8040625 346.6484375 22.703125 C352.28358084 21.69746865 357.21268598 20.12199838 362.47265625 17.88671875 C365.6082931 16.69842231 368.48232901 16.28958009 371.8125 16 C371.8125 15.34 371.8125 14.68 371.8125 14 C373.4357687 13.3291288 375.06117578 12.66342971 376.6875 12 C378.04488281 11.443125 378.04488281 11.443125 379.4296875 10.875 C381.8125 10 381.8125 10 383.8125 10 C383.8125 9.34 383.8125 8.68 383.8125 8 C385.4625 7.67 387.1125 7.34 388.8125 7 C388.8125 6.34 388.8125 5.68 388.8125 5 C390.2975 4.505 390.2975 4.505 391.8125 4 C392.43125 3.319375 393.05 2.63875 393.6875 1.9375 C395.8125 0 395.8125 0 398.17578125 -0.39453125 C401.77782168 0.14444073 402.81562756 1.6176702 405.125 4.375 C406.17107422 5.59316406 406.17107422 5.59316406 407.23828125 6.8359375 C408.8125 9 408.8125 9 408.8125 11 C409.4725 11 410.1325 11 410.8125 11 C412.57421875 12.86328125 412.57421875 12.86328125 414.5 15.3125 C415.14324219 16.11300781 415.78648437 16.91351563 416.44921875 17.73828125 C417.12404297 18.85783203 417.12404297 18.85783203 417.8125 20 C416.55891445 23.76075665 415.10576113 24.47649131 411.875 26.6875 C410.97910156 27.31011719 410.08320312 27.93273437 409.16015625 28.57421875 C406.8125 30 406.8125 30 404.8125 30 C404.8125 30.66 404.8125 31.32 404.8125 32 C403.1625 32.33 401.5125 32.66 399.8125 33 C399.8125 33.66 399.8125 34.32 399.8125 35 C396.15340892 36.71350149 392.49273939 38.42334279 388.828125 40.125 C386.49437238 41.20985595 384.17360372 42.31099713 381.859375 43.4375 C375.71807507 46.37944009 369.55814855 48.35978848 362.9765625 50.10546875 C359.88421729 50.91033034 359.88421729 50.91033034 357.3203125 52.046875 C354.25041742 53.2136264 351.31399701 53.62479848 348.0625 54.0625 C344.11634255 54.2832887 344.11634255 54.2832887 340.8125 56 C339.22850384 56.21526054 337.63630368 56.37090803 336.04296875 56.5 C335.07166016 56.5825 334.10035156 56.665 333.09960938 56.75 C332.07673828 56.8325 331.05386719 56.915 330 57 C327.99324637 57.16371221 325.98672242 57.33027067 323.98046875 57.5 C323.08610107 57.5721875 322.1917334 57.644375 321.27026367 57.71875 C318.88384952 57.9310334 318.88384952 57.9310334 316.90462869 58.50953847 C313.3155237 59.35093887 309.63752362 59.14043141 305.96888733 59.13371277 C304.61391251 59.1371111 304.61391251 59.1371111 303.23156446 59.14057809 C300.19741352 59.14691986 297.16330723 59.14608857 294.12915039 59.14526367 C291.95576418 59.14825536 289.78237851 59.15165791 287.60899353 59.15544128 C281.69478301 59.16429211 275.78058695 59.16662007 269.86637044 59.16725707 C266.16488892 59.16796784 262.46341107 59.17010285 258.76193047 59.17275429 C246.49633373 59.18153827 234.23074582 59.18617354 221.96514589 59.18542381 C220.97318359 59.18536388 220.97318359 59.18536388 219.96118164 59.18530273 C218.96799086 59.18524141 218.96799086 59.18524141 217.95473563 59.18517885 C206.60533501 59.18474891 195.25598078 59.19609153 183.90658957 59.2110464 C173.56741059 59.22417989 163.22824625 59.22948409 152.88905901 59.22884732 C146.72417549 59.22859371 140.55933201 59.23136791 134.39445686 59.24202538 C128.57911679 59.25180248 122.76385415 59.25172059 116.94851112 59.24450874 C114.83036433 59.24347419 112.71221248 59.24575735 110.59407425 59.2518692 C97.61708387 59.28684356 84.90019873 58.6514058 71.99999225 57.22925532 C67.9394106 56.80369498 63.86966225 56.52796744 59.796875 56.24609375 C57.8125 56 57.8125 56 56.8125 55 C53.35867875 54.45562288 49.8948374 54.03357777 46.42578125 53.59765625 C43.01553991 53.0335839 40.06276349 52.15042221 36.8125 51 C34.54387812 50.36701992 32.27292811 49.7423385 30 49.125 C25.02068397 47.71882856 20.39141484 46.099382 15.72265625 43.8828125 C13.15561095 42.69640711 10.5125466 41.83078357 7.8125 41 C7.8125 40.34 7.8125 39.68 7.8125 39 C5.8325 38.67 3.8525 38.34 1.8125 38 C1.8125 37.34 1.8125 36.68 1.8125 36 C0.1625 35.67 -1.4875 35.34 -3.1875 35 C-3.1875 34.34 -3.1875 33.68 -3.1875 33 C-4.8375 32.67 -6.4875 32.34 -8.1875 32 C-8.1875 31.34 -8.1875 30.68 -8.1875 30 C-9.5075 29.67 -10.8275 29.34 -12.1875 29 C-12.1875 28.34 -12.1875 27.68 -12.1875 27 C-13.5075 26.67 -14.8275 26.34 -16.1875 26 C-16.1875 25.34 -16.1875 24.68 -16.1875 24 C-17.5075 23.67 -18.8275 23.34 -20.1875 23 C-20.1875 21.02 -20.1875 19.04 -20.1875 17 C-19.1975 16.67 -18.2075 16.34 -17.1875 16 C-17.1875 15.34 -17.1875 14.68 -17.1875 14 C-15.52534732 12.66104368 -13.85786393 11.32869858 -12.1875 10 C-11.548125 9.195625 -10.90875 8.39125 -10.25 7.5625 C-4.16310976 0 -4.16310976 0 0 0 Z " fill="#0AC2ED" transform="translate(203.1875,259)"/>
<path d="M0 0 C4.86189793 2.32256271 9.03657811 5.91820218 11 11 C12.39431144 17.43359453 12.43386149 22.16243546 9 28 C7.72499886 29.10576637 7.72499886 29.10576637 6.42424011 30.23387146 C3.43416174 33.64563793 3.28293096 36.112647 3.3371582 40.44555664 C3.32679031 41.17803619 3.31642242 41.91051575 3.30574036 42.66519165 C3.27869699 45.08075471 3.288332 47.49449673 3.30078125 49.91015625 C3.29486718 51.60062665 3.2876183 53.29109285 3.27909851 54.98155212 C3.26721939 58.52657868 3.27391614 62.07097752 3.29321289 65.6159668 C3.31598353 70.12961432 3.28945108 74.64136443 3.24815083 79.15482426 C3.22238936 82.64939359 3.22520407 86.14352095 3.23604393 89.63815117 C3.23751829 91.30011139 3.22998518 92.96210762 3.21279335 94.62397957 C3.10779359 106.7506586 4.47578417 116.61647905 13.375 125.75 C14.24125 126.4925 15.1075 127.235 16 128 C16.07402793 122.48245195 16.12854366 116.96519144 16.16479492 111.44726562 C16.17990325 109.56928474 16.20039094 107.69133924 16.22631836 105.81347656 C16.26261246 103.11774981 16.27970545 100.42248854 16.29296875 97.7265625 C16.30845261 96.88380768 16.32393646 96.04105286 16.33988953 95.17276001 C16.37589136 92.56277725 16.37589136 92.56277725 16 89 C15.01 88.34 14.02 87.68 13 87 C13 86.01 13 85.02 13 84 C12.34 84 11.68 84 11 84 C8.078227 78.15645399 7.71786134 75.23731193 9.640625 68.8828125 C11.02381675 64.74795206 11.02381675 64.74795206 12 63 C12.99 62.67 13.98 62.34 15 62 C15.33 61.01 15.66 60.02 16 59 C16.99 59 17.98 59 19 59 C19 58.34 19 57.68 19 57 C29.55808656 55.66742597 29.55808656 55.66742597 34 57 C34 57.66 34 58.32 34 59 C34.721875 59.185625 35.44375 59.37125 36.1875 59.5625 C40.16387599 61.59486995 42.26012798 63.87136926 44 68 C44.87387071 73.62742605 44.8539938 78.32251218 42.25 83.4375 C40 86 40 86 37.88577271 88.00526428 C35.09969326 92.42974853 35.4870687 96.35204341 35.57763672 101.47827148 C35.5802652 102.53250305 35.58289368 103.58673462 35.58560181 104.6729126 C35.5985784 108.15600555 35.63944213 111.63821853 35.6796875 115.12109375 C35.69223068 117.54337105 35.70271008 119.96565985 35.71121216 122.38795471 C35.73782205 128.76611112 35.78668379 135.14388475 35.84191895 141.52185059 C35.92813617 151.72697968 35.98762954 161.93221026 36.0340004 172.13759041 C36.0544334 175.70177119 36.088538 179.26563771 36.12399292 182.82969666 C36.1376516 185.01723958 36.15086901 187.20478532 36.16357422 189.39233398 C36.17704895 190.3821376 36.19052368 191.37194122 36.20440674 192.39173889 C36.22057097 197.28778198 36.12488663 201.47286795 34 206 C31.875 206.875 31.875 206.875 30 207 C30 207.66 30 208.32 30 209 C27.69 209 25.38 209 23 209 C23 208.34 23 207.68 23 207 C22.38125 206.9175 21.7625 206.835 21.125 206.75 C19 206 19 206 17.88314819 204.24620056 C16.90693269 201.76329244 16.74875929 199.97170076 16.74462891 197.31079102 C16.73766998 196.38625626 16.73071106 195.4617215 16.72354126 194.50917053 C16.72453827 193.51743332 16.72553528 192.52569611 16.7265625 191.50390625 C16.7062764 189.39778112 16.68542567 187.29166136 16.6640625 185.18554688 C16.64144695 181.86966406 16.62498501 178.55399356 16.61914062 175.23803711 C16.60962289 172.03460456 16.57585709 168.83212536 16.5390625 165.62890625 C16.54410797 164.63919327 16.54915344 163.64948029 16.55435181 162.629776 C16.49199829 158.26850983 16.44544912 155.71940781 14.11083984 151.94897461 C12.01708316 149.96318737 12.01708316 149.96318737 9.6875 148.1875 C6.71870953 145.77104264 4.38745364 143.13579349 1.9140625 140.2265625 C0.56262856 138.65448629 -0.82102584 137.10983514 -2.2265625 135.5859375 C-2.95617187 134.79445313 -3.68578125 134.00296875 -4.4375 133.1875 C-5.11683594 132.45917969 -5.79617188 131.73085938 -6.49609375 130.98046875 C-8 129 -8 129 -8 126 C-8.66 126 -9.32 126 -10 126 C-10.495 123.03 -10.495 123.03 -11 120 C-11.66 120 -12.32 120 -13 120 C-13.93558063 115.26860282 -14.1370031 110.68843876 -14.11352539 105.88330078 C-14.11367142 105.09238541 -14.11381744 104.30147003 -14.1139679 103.48658752 C-14.11327489 100.88946731 -14.10551129 98.29242009 -14.09765625 95.6953125 C-14.0957899 93.8878483 -14.09436702 92.08038359 -14.09336853 90.2729187 C-14.08956049 85.52842804 -14.07974488 80.78396826 -14.06866455 76.03948975 C-14.05841355 71.19299741 -14.05386302 66.34650006 -14.04882812 61.5 C-14.03812102 51.99998647 -14.02106525 42.49999581 -14 33 C-14.61875 32.690625 -15.2375 32.38125 -15.875 32.0625 C-17.25 31.375 -18.625 30.6875 -20 30 C-20 29.01 -20 28.02 -20 27 C-20.66 27 -21.32 27 -22 27 C-23.12050151 23.63849548 -23.13296652 21.03713274 -23.125 17.5 C-23.12757813 16.3553125 -23.13015625 15.210625 -23.1328125 14.03125 C-23 11 -23 11 -22 8 C-21.34 8 -20.68 8 -20 8 C-19.67 7.01 -19.34 6.02 -19 5 C-18.34 5 -17.68 5 -17 5 C-17 4.34 -17 3.68 -17 3 C-11.68298913 -0.95616713 -6.38387821 -1.02538976 0 0 Z M-11 15 C-11.36962413 17.88306818 -11.4200394 19.39094287 -9.75 21.8125 C-7.80082707 23.37433428 -7.80082707 23.37433428 -4 23 C-4 22.34 -4 21.68 -4 21 C-3.01 20.67 -2.02 20.34 -1 20 C-1.33 17.69 -1.66 15.38 -2 13 C-7.0205829 12.49708619 -7.0205829 12.49708619 -11 15 Z M24 69 C22.26352052 70.67488528 22.26352052 70.67488528 21 73 C21.41387499 75.74303573 21.41387499 75.74303573 23 78 C24.78671071 79.17612195 24.78671071 79.17612195 27 79 C29.72981832 77.64599355 29.72981832 77.64599355 32 76 C31.67 74.02 31.34 72.04 31 70 C28.69 69.67 26.38 69.34 24 69 Z " fill="#3350C7" transform="translate(439,515)"/>
<path d="M0 0 C0 0.66 0 1.32 0 2 C2.31 2.33 4.62 2.66 7 3 C7 3.66 7 4.32 7 5 C7.61359375 5.25394531 8.2271875 5.50789062 8.859375 5.76953125 C12.47510137 7.84791411 13.63614204 11.17980603 15 15 C15.84052692 20.88368842 14.16492162 25.13088982 11 30 C9.48828125 31.734375 9.48828125 31.734375 8 33 C7.34 33 6.68 33 6 33 C6.00888245 33.77070831 6.01776489 34.54141663 6.0269165 35.33547974 C6.10763593 42.65972329 6.16825189 49.98374601 6.20724869 57.308321 C6.22797253 61.07244227 6.2560048 64.83619081 6.30175781 68.60009766 C6.34576773 72.24412481 6.36925081 75.8877974 6.37950897 79.53207016 C6.38680299 80.91051681 6.40104073 82.28894785 6.42292023 83.66724014 C6.63470234 97.58365275 4.64001493 109.57577751 -5 120 C-5.6703125 120.77472656 -6.340625 121.54945313 -7.03125 122.34765625 C-8.09859375 123.56775391 -8.09859375 123.56775391 -9.1875 124.8125 C-9.8976123 125.62887939 -10.60772461 126.44525879 -11.33935547 127.28637695 C-14 130 -14 130 -17.05322266 132.03955078 C-22.02852527 135.71342019 -25.33530804 138.89795209 -26.66677856 145.11178589 C-27.59658555 153.69396297 -27.42535375 162.31012107 -27.22924805 170.9263916 C-27.15946534 174.49694004 -27.152475 178.06753671 -27.14257812 181.63867188 C-27.13040914 185.64907594 -27.1075543 189.65750807 -27.04203796 193.66749573 C-27.01385735 195.44095619 -27.01385735 195.44095619 -26.98510742 197.25024414 C-26.96445724 198.2910463 -26.94380707 199.33184845 -26.92253113 200.40419006 C-27 203 -27 203 -28 206 C-30.0625 206.6875 -30.0625 206.6875 -32 207 C-32 207.66 -32 208.32 -32 209 C-34.31 209 -36.62 209 -39 209 C-39 208.34 -39 207.68 -39 207 C-39.639375 206.896875 -40.27875 206.79375 -40.9375 206.6875 C-41.618125 206.460625 -42.29875 206.23375 -43 206 C-43.95572178 203.13283465 -44.12472272 201.35765496 -44.12457275 198.38296509 C-44.12841728 196.96141869 -44.12841728 196.96141869 -44.13233948 195.51115417 C-44.12918983 193.95416557 -44.12918983 193.95416557 -44.12597656 192.36572266 C-44.1278447 191.27116257 -44.12971283 190.17660248 -44.13163757 189.0488739 C-44.13564495 186.66875062 -44.13771672 184.28862348 -44.13809967 181.90849686 C-44.14150899 176.85332463 -44.1628618 171.79828174 -44.18333054 166.74315453 C-44.22139666 157.32581101 -44.25316271 147.90863498 -44.25048828 138.49121094 C-44.24872929 131.94535447 -44.27300776 125.39987658 -44.3123703 118.85413742 C-44.3228522 116.35747779 -44.32433835 113.86076379 -44.31671906 111.36409378 C-44.30712769 107.87322882 -44.32822413 104.38380143 -44.35644531 100.89306641 C-44.34624863 99.85912247 -44.33605194 98.82517853 -44.32554626 97.75990295 C-44.38028996 91.9045923 -44.38028996 91.9045923 -47.41522217 87.00668335 C-48.26819885 86.34447784 -49.12117554 85.68227234 -50 85 C-53.0072566 80.4891151 -53.52555164 75.92604428 -52.56640625 70.5859375 C-50.67758481 64.20449556 -47.55104269 60.70069513 -42 57 C-38.86328125 56.8046875 -38.86328125 56.8046875 -35.3125 56.875 C-34.13300781 56.89304687 -32.95351563 56.91109375 -31.73828125 56.9296875 C-30.83464844 56.95289063 -29.93101562 56.97609375 -29 57 C-29 57.66 -29 58.32 -29 59 C-27.88625 59.0928125 -27.88625 59.0928125 -26.75 59.1875 C-22.42263674 60.46603914 -20.91095224 63.40583358 -18.75 67.1875 C-17.22850869 72.8930924 -17.00427039 78.07966432 -19.75 83.375 C-22 86 -22 86 -24.11621094 87.78417969 C-26.58727245 90.69078341 -26.46462265 92.30424471 -26.390625 96.078125 C-26.37773437 97.23828125 -26.36484375 98.3984375 -26.3515625 99.59375 C-26.30128906 101.40359375 -26.30128906 101.40359375 -26.25 103.25 C-26.22292969 105.08304688 -26.22292969 105.08304688 -26.1953125 106.953125 C-26.148181 109.96954078 -26.08239413 112.98437491 -26 116 C-25.20980469 115.04867187 -24.41960937 114.09734375 -23.60546875 113.1171875 C-19.82056452 108.56048387 -19.82056452 108.56048387 -18 107 C-17.34 107 -16.68 107 -16 107 C-15.67 105.02 -15.34 103.04 -15 101 C-14.34 101 -13.68 101 -13 101 C-12.67 78.56 -12.34 56.12 -12 33 C-13.32 32.34 -14.64 31.68 -16 31 C-18.68312309 29.65843845 -19.28789212 27.81481854 -20.40234375 25.12109375 C-21.43871844 21.44297965 -21.23171432 17.78466729 -21 14 C-20.34 14 -19.68 14 -19 14 C-18.67 12.02 -18.34 10.04 -18 8 C-17.34 8 -16.68 8 -16 8 C-15.67 7.01 -15.34 6.02 -15 5 C-14.34 5 -13.68 5 -13 5 C-13 4.34 -13 3.68 -13 3 C-8.37802694 0.78145293 -5.23175837 -0.38281159 0 0 Z M-6.8125 14.0625 C-8.67811985 17.10640607 -7.69878609 19.63312157 -7 23 C-3.94736336 23.98120464 -2.05263664 23.98120464 1 23 C1.33 20.69 1.66 18.38 2 16 C1.01 15.67 0.02 15.34 -1 15 C-1 14.34 -1 13.68 -1 13 C-4.77502919 12.66285367 -4.77502919 12.66285367 -6.8125 14.0625 Z M-40 71 C-40.5 74.5 -40.5 74.5 -40 78 C-37.31973545 80.24180162 -37.31973545 80.24180162 -35 79.8125 C-32.62618241 78.84813661 -31.44608871 78.1310781 -30 76 C-30.00156224 73.40882687 -30.00156224 73.40882687 -31 71 C-35.01009099 68.32660601 -35.98990901 68.32660601 -40 71 Z " fill="#3353CB" transform="translate(375,515)"/>
<path d="M0 0 C3.1774938 2.84552984 4.24916048 5.10578083 4.49498463 9.26132393 C4.51306268 10.99566679 4.50902994 12.73032363 4.48774719 14.46463013 C4.49187046 15.42233681 4.49599372 16.38004349 4.50024194 17.36677158 C4.50917742 20.57830079 4.48950453 23.78901536 4.4699707 27.00048828 C4.47047942 29.30174865 4.47273463 31.6030092 4.47660828 33.90426636 C4.48203393 40.1561547 4.4625995 46.40774742 4.43850732 52.65958261 C4.41723964 59.19515481 4.41780728 65.7307256 4.41581726 72.2663269 C4.41005457 83.24026478 4.38823595 94.21409622 4.35668945 105.18798828 C4.32424654 116.48291488 4.30300738 127.77778273 4.29516602 139.07275391 C4.29468052 139.76870104 4.29419503 140.46464818 4.29369483 141.18168463 C4.29176617 143.97896413 4.28985404 146.77624364 4.28797873 149.57352317 C4.27999438 160.98336052 4.26272428 172.39318572 4.24434257 183.80301046 C4.23827093 187.7019364 4.23313102 191.60086293 4.2279911 195.49979019 C4.21922219 201.61794832 4.20492718 207.73607034 4.1862812 213.85420609 C4.18014826 216.10407617 4.17570393 218.35395156 4.17303848 220.60382843 C4.16906975 223.66569929 4.15896405 226.7274879 4.14717102 229.78933716 C4.14735538 230.68766994 4.14753975 231.58600271 4.14772969 232.5115577 C4.14327185 233.32956191 4.13881401 234.14756613 4.13422108 234.99035835 C4.13243251 235.69734529 4.13064394 236.40433222 4.12880117 237.132743 C4 239 4 239 3 242 C0.9375 242.6875 0.9375 242.6875 -1 243 C-1 243.66 -1 244.32 -1 245 C-3.31 245 -5.62 245 -8 245 C-8 244.34 -8 243.68 -8 243 C-8.61875 242.9175 -9.2375 242.835 -9.875 242.75 C-12 242 -12 242 -13.11708236 240.2096405 C-14.03581685 237.91036268 -14.25054255 236.35656802 -14.25168228 233.89575195 C-14.25689778 233.08210678 -14.26211327 232.26846161 -14.26748681 231.43016052 C-14.26302537 230.54184036 -14.25856392 229.6535202 -14.25396729 228.73828125 C-14.25708727 227.79030167 -14.26020725 226.84232208 -14.26342177 225.86561584 C-14.27141494 222.68118111 -14.26507294 219.49693624 -14.25878906 216.3125 C-14.26149834 214.03271371 -14.26505891 211.75292829 -14.26940918 209.47314453 C-14.278543 203.27494163 -14.27498481 197.07680516 -14.26865101 190.87860107 C-14.26359617 184.39953428 -14.26828102 177.92047326 -14.27142334 171.44140625 C-14.27529788 159.86239787 -14.26907293 148.28341987 -14.25890467 136.70441628 C-14.24996906 126.20397084 -14.25152108 115.70356963 -14.26074219 105.203125 C-14.2714431 93.01184711 -14.27543037 80.82060072 -14.26951766 68.62931824 C-14.26639563 62.17490578 -14.26599502 55.72052379 -14.27259064 49.26611328 C-14.27835729 43.19884196 -14.27437964 37.13165435 -14.26280212 31.06439209 C-14.2601519 28.83429097 -14.26092678 26.60418283 -14.26532745 24.37408447 C-14.27076998 21.3365333 -14.26396439 18.29925257 -14.25396729 15.26171875 C-14.25842873 14.37339859 -14.26289017 13.48507843 -14.26748681 12.56983948 C-14.26227132 11.75619431 -14.25705582 10.94254913 -14.25168228 10.10424805 C-14.25135758 9.40317429 -14.25103287 8.70210052 -14.25069833 7.9797821 C-13.95668578 5.6579446 -13.14379952 4.02606705 -12 2 C-11.34 2 -10.68 2 -10 2 C-10 1.34 -10 0.68 -10 0 C-6.16652698 -1.27782434 -3.91272241 -0.96101954 0 0 Z " fill="#3155C8" transform="translate(407,479)"/>
<path d="M0 0 C5.46354132 2.97632918 8.65090948 6.35616012 10.875 12.25 C11.9206609 18.37620895 10.72751179 22.47532921 7.359375 27.62109375 C5.68685569 29.45646362 4.102566 30.2009453 1.875 31.25 C1.88610306 31.95299728 1.89720612 32.65599457 1.90864563 33.3802948 C2.00896175 40.01559493 2.08502204 46.65068251 2.13406086 53.28657055 C2.1601206 56.69796874 2.1954489 60.10873874 2.25219727 63.51977539 C2.31707403 67.44409584 2.3412107 71.36816474 2.36328125 75.29296875 C2.38908768 76.51396774 2.4148941 77.73496674 2.44148254 78.9929657 C2.44460612 88.42853494 2.44460612 88.42853494 -0.59301758 91.49731445 C-1.42857178 92.07570068 -2.26412598 92.65408691 -3.125 93.25 C-3.455 93.58 -3.785 93.91 -4.125 94.25 C-10.46341463 94.7195122 -10.46341463 94.7195122 -13.0625 92.875 C-14.125 91.25 -14.125 91.25 -14.125 89.25 C-14.785 89.25 -15.445 89.25 -16.125 89.25 C-16.125 70.11 -16.125 50.97 -16.125 31.25 C-16.785 31.25 -17.445 31.25 -18.125 31.25 C-18.125 30.59 -18.125 29.93 -18.125 29.25 C-19.0840625 28.940625 -19.0840625 28.940625 -20.0625 28.625 C-22.125 27.25 -22.125 27.25 -22.875 24.125 C-22.9575 23.17625 -23.04 22.2275 -23.125 21.25 C-23.785 21.25 -24.445 21.25 -25.125 21.25 C-25.125 18.28 -25.125 15.31 -25.125 12.25 C-24.465 12.25 -23.805 12.25 -23.125 12.25 C-23.021875 11.5075 -22.91875 10.765 -22.8125 10 C-22.07566203 7.0526481 -21.17700858 5.46616926 -19.125 3.25 C-18.465 3.25 -17.805 3.25 -17.125 3.25 C-17.125 2.59 -17.125 1.93 -17.125 1.25 C-10.88374416 -1.7458028 -6.54934163 -3.06281596 0 0 Z M-10.875 12.4375 C-12.29427402 14.23996766 -12.29427402 14.23996766 -12.625 16.75 C-12.36808696 19.50524338 -12.36808696 19.50524338 -9.625 21.0625 C-8.8 21.454375 -7.975 21.84625 -7.125 22.25 C-4.51556942 21.1854148 -4.51556942 21.1854148 -2.125 19.25 C-1.45819632 16.20720628 -1.45819632 16.20720628 -2.125 13.25 C-5.32622823 11.11584784 -7.44788984 10.11196096 -10.875 12.4375 Z " fill="#3A3CC1" transform="translate(505.125,629.75)"/>
<path d="M0 0 C4.75279445 3.6966179 8.08185799 6.67566157 9.25 12.75 C9.24053734 18.09640169 8.58577571 22.42584631 5.25 26.75 C4.56579987 27.34292847 3.88159973 27.93585693 3.17666626 28.54675293 C0.77979342 31.28770665 0.74656361 32.59187421 0.73583984 36.18945312 C0.7225766 37.27738159 0.70931335 38.36531006 0.69564819 39.48620605 C0.70069366 40.65607056 0.70573914 41.82593506 0.7109375 43.03125 C0.69914459 44.23688599 0.68735168 45.44252197 0.67520142 46.68469238 C0.63986521 50.53992584 0.63076362 54.39461766 0.625 58.25 C0.60867043 62.10521972 0.58665198 65.96019603 0.55337524 69.81530762 C0.53371336 72.21473928 0.52441377 74.6142826 0.52645874 77.01379395 C0.51602036 78.64568665 0.51602036 78.64568665 0.50537109 80.31054688 C0.50411224 81.2666687 0.50285339 82.22279053 0.5015564 83.20788574 C0.14647941 86.79613192 -0.95345923 88.92395772 -3.4375 91.5 C-6.60618951 93.21280514 -9.20878392 92.95430093 -12.75 92.75 C-12.75 92.09 -12.75 91.43 -12.75 90.75 C-13.74 90.42 -14.73 90.09 -15.75 89.75 C-17.05760893 87.13478215 -16.86997548 85.21886599 -16.86352539 82.29052734 C-16.86344986 81.14949554 -16.86337433 80.00846375 -16.86329651 78.83285522 C-16.85813522 77.59637238 -16.85297394 76.35988953 -16.84765625 75.0859375 C-16.8462413 73.82359283 -16.84482635 72.56124817 -16.84336853 71.26065063 C-16.83871078 67.90361701 -16.82972408 64.546651 -16.81866455 61.18963623 C-16.8084377 57.76445094 -16.80386818 54.33925866 -16.79882812 50.9140625 C-16.78778238 44.19268957 -16.77103194 37.47134869 -16.75 30.75 C-17.38421875 30.63785156 -18.0184375 30.52570312 -18.671875 30.41015625 C-19.70054687 30.08337891 -19.70054687 30.08337891 -20.75 29.75 C-22 27.1875 -22 27.1875 -22.75 24.75 C-23.41 24.75 -24.07 24.75 -24.75 24.75 C-25.87050151 21.38849548 -25.88296652 18.78713274 -25.875 15.25 C-25.87757813 14.1053125 -25.88015625 12.960625 -25.8828125 11.78125 C-25.72679669 8.22041846 -25.47124226 6.42003845 -22.82421875 3.9609375 C-22.03660156 3.35507812 -21.24898438 2.74921875 -20.4375 2.125 C-19.65761719 1.51398437 -18.87773437 0.90296875 -18.07421875 0.2734375 C-12.50992214 -3.37374852 -5.90699694 -2.68499861 0 0 Z M-9.75 9.75 C-9.75 10.41 -9.75 11.07 -9.75 11.75 C-11.07 12.08 -12.39 12.41 -13.75 12.75 C-13.91681109 15.66652174 -13.91681109 15.66652174 -13.75 18.75 C-13.09 19.41 -12.43 20.07 -11.75 20.75 C-8.15320934 20.42673447 -8.15320934 20.42673447 -4.75 19.75 C-4.42 17.44 -4.09 15.13 -3.75 12.75 C-5.07 12.42 -6.39 12.09 -7.75 11.75 C-7.75 11.09 -7.75 10.43 -7.75 9.75 C-8.41 9.75 -9.07 9.75 -9.75 9.75 Z " fill="#393DC1" transform="translate(315.75,631.25)"/>
<path d="M0 0 C3.96287721 0.38104589 5.4323945 1.57539752 8.25 4.3125 C9.57486105 6.96222211 9.40640093 9.00066831 9.44287109 11.96801758 C9.46696548 13.74545097 9.46696548 13.74545097 9.49154663 15.55879211 C9.53589963 20.98036232 9.5775009 26.40178676 9.60009766 31.82348633 C9.61343377 34.68611633 9.64127879 37.54803291 9.68212891 40.41040039 C9.74092365 44.53023322 9.7587568 48.64930078 9.7734375 52.76953125 C9.79610687 54.04987747 9.81877625 55.33022369 9.84213257 56.64936829 C9.81856877 66.52463802 9.81856877 66.52463802 6.77978516 69.59643555 C5.94495605 70.16273682 5.11012695 70.72903809 4.25 71.3125 C3.755 71.8075 3.755 71.8075 3.25 72.3125 C0.91702567 72.35342937 -1.41705225 72.35491723 -3.75 72.3125 C-3.75 71.6525 -3.75 70.9925 -3.75 70.3125 C-4.74 69.9825 -5.73 69.6525 -6.75 69.3125 C-9.03588467 65.88367299 -9.01525359 64.58106883 -9.05639648 60.54345703 C-9.07238388 59.35857697 -9.08837128 58.1736969 -9.10484314 56.95291138 C-9.11020584 55.67165375 -9.11556854 54.39039612 -9.12109375 53.0703125 C-9.13012222 51.75465302 -9.1391507 50.43899353 -9.14845276 49.08346558 C-9.16493887 46.29764352 -9.17264207 43.51194157 -9.17553711 40.72607422 C-9.18091923 37.16249992 -9.21859089 33.60006016 -9.26428127 30.03680611 C-9.30124422 26.63131331 -9.30256753 23.22599911 -9.30859375 19.8203125 C-9.32812607 18.54310333 -9.34765839 17.26589417 -9.36778259 15.94998169 C-9.31754527 6.10388327 -9.31754527 6.10388327 -6.27758789 3.03076172 C-5.44348389 2.46373535 -4.60937988 1.89670898 -3.75 1.3125 C-2.75 0.3125 -2.75 0.3125 0 0 Z " fill="#3C37BF" transform="translate(371.75,651.6875)"/>
<path d="M0 0 C3.96333283 0.82569434 5.44534526 2.55941431 8 5.625 C9.20502592 8.03505184 9.13953146 9.57862781 9.16113281 12.27075195 C9.17074036 13.23547928 9.1803479 14.2002066 9.19024658 15.19416809 C9.19449646 16.23997543 9.19874634 17.28578278 9.203125 18.36328125 C9.20882507 19.43619919 9.21452515 20.50911713 9.22039795 21.61454773 C9.22985683 23.88844819 9.23638544 26.16236242 9.24023438 28.4362793 C9.24993122 31.91284175 9.28094322 35.38881098 9.3125 38.86523438 C9.31903079 41.07291315 9.32428097 43.28059616 9.328125 45.48828125 C9.3404718 46.5280159 9.3528186 47.56775055 9.36553955 48.63899231 C9.33743156 57.76310094 9.33743156 57.76310094 6 61.625 C2.3558226 64.0544516 0.28758728 63.78679575 -4 63.625 C-4 62.965 -4 62.305 -4 61.625 C-4.99 61.295 -5.98 60.965 -7 60.625 C-8.24641887 58.13216226 -8.15396235 56.40159187 -8.19287109 53.61206055 C-8.20893402 52.56725021 -8.22499695 51.52243988 -8.24154663 50.44596863 C-8.28593806 45.66556394 -8.3270588 40.88529884 -8.35009766 36.10473633 C-8.36666456 33.58185608 -8.39396384 31.05902291 -8.43212891 28.53637695 C-8.48683189 24.9029093 -8.50876249 21.27054247 -8.5234375 17.63671875 C-8.54610687 16.50948898 -8.56877625 15.38225922 -8.59213257 14.22087097 C-8.57100898 6.40697201 -8.57100898 6.40697201 -5.65478516 2.41333008 C-3 0.625 -3 0.625 0 0 Z " fill="#3C35BC" transform="translate(433,660.375)"/>
<path d="M0 0 C3.40672658 3.23163784 5.26285398 5.3892919 5.62890625 10.12890625 C5.63284765 11.60693134 5.61023676 13.08524075 5.5625 14.5625 C5.57345703 15.30435547 5.58441406 16.04621094 5.59570312 16.81054688 C5.54347778 20.72048412 5.2275766 22.63932134 3.08984375 26.02734375 C1 28 1 28 -1 28 C-1 28.66 -1 29.32 -1 30 C-3.31 30 -5.62 30 -8 30 C-8 29.34 -8 28.68 -8 28 C-10.475 27.01 -10.475 27.01 -13 26 C-13.11627503 22.41694008 -13.1872736 18.83436583 -13.25 15.25 C-13.28351562 14.23421875 -13.31703125 13.2184375 -13.3515625 12.171875 C-13.45052457 4.65075771 -13.45052457 4.65075771 -11.171875 1.359375 C-7.14712858 -1.15971089 -4.50510403 -1.35153121 0 0 Z " fill="#3E2EBA" transform="translate(535,694)"/>
<path d="M0 0 C3.48734051 1.10399979 4.91650585 2.74840504 7.09765625 5.6640625 C7.81841599 8.85162707 7.79744758 11.90814652 7.72265625 15.1640625 C7.75166016 16.42669922 7.75166016 16.42669922 7.78125 17.71484375 C7.74564295 22.23693968 7.57057789 24.08521835 4.62109375 27.6953125 C3.78835938 28.345 2.955625 28.9946875 2.09765625 29.6640625 C1.76765625 29.9940625 1.43765625 30.3240625 1.09765625 30.6640625 C-0.90192739 30.70487033 -2.90279629 30.70660606 -4.90234375 30.6640625 C-4.90234375 30.0040625 -4.90234375 29.3440625 -4.90234375 28.6640625 C-5.54171875 28.5403125 -6.18109375 28.4165625 -6.83984375 28.2890625 C-7.86078125 27.9796875 -7.86078125 27.9796875 -8.90234375 27.6640625 C-10.71210896 24.04453209 -10.17271038 19.83737952 -10.21484375 15.8515625 C-10.24384766 14.94857422 -10.27285156 14.04558594 -10.30273438 13.11523438 C-10.34342328 8.85541881 -10.2803598 6.32434164 -8.12890625 2.56640625 C-5.47445053 0.29847654 -3.45620151 0.06871176 0 0 Z " fill="#3D2FB7" transform="translate(275.90234375,693.3359375)"/>
<path d="M0 0 C0 0.33 0 0.66 0 1 C-1.299375 1.3403125 -1.299375 1.3403125 -2.625 1.6875 C-6.61778814 3.24025095 -8.84248305 5.14319895 -12 8 C-9.83199867 1.31532922 -6.98981916 -0.47657858 0 0 Z " fill="#253087" transform="translate(375,652)"/>
<path d="M0 0 C0.66 0 1.32 0 2 0 C0.55746343 3.36591866 -1.33264727 5.51047079 -4 8 C-4.66 7.67 -5.32 7.34 -6 7 C-4.71937515 5.2925002 -3.38232443 3.62626404 -2 2 C-1.34 2 -0.68 2 0 2 C0 1.34 0 0.68 0 0 Z " fill="#2937A2" transform="translate(488,631)"/>
</svg>
